<svg width="96" height="96" viewBox="0 0 96 96" fill="none" xmlns="http://www.w3.org/2000/svg" role="img" aria-labelledby="title desc">
  <title id="title">Fair fuel price logo mark</title>
  <desc id="desc">A fuel droplet, Korea map silhouette, and price line mark.</desc>
  <rect width="96" height="96" rx="22" fill="#102337"/>
  <path d="M48 14C58.6 28.2 69 39.7 69 55.4C69 68.5 59.8 78.5 48 78.5C36.2 78.5 27 68.5 27 55.4C27 39.7 37.4 28.2 48 14Z" fill="#2563EB"/>
  <path d="M44.1 27.8C39.9 36.4 34.5 44.8 34.5 54.8C34.5 64 40.4 71.1 48.4 71.1C44.9 65.2 43.5 58.9 44.4 51.8C45.2 44.9 47.9 37.8 44.1 27.8Z" fill="#4DB6AC" opacity=".95"/>
  <path d="M54.5 35.5C58.6 39.5 62.4 45.5 62.4 53.4C62.4 61.6 57.3 68.1 50.2 70.4C54.3 62.5 54.1 54.7 51 46.5C49.6 42.9 50.7 38.5 54.5 35.5Z" fill="#F8FAFC" opacity=".26"/>
  <path d="M29 64.5C37 58.7 43.1 61.1 48.7 55.2C54 49.5 59.8 48 67 50" stroke="#F59E0B" stroke-width="5" stroke-linecap="round" stroke-linejoin="round"/>
  <circle cx="67" cy="50" r="4.5" fill="#F59E0B"/>
  <path d="M25 28H36M60 72H72M23 76H35" stroke="#E8F2FF" stroke-width="3" stroke-linecap="round" opacity=".58"/>
</svg>
